<svg width="39" height="38" viewBox="0 0 39 38" fill="none" xmlns="http://www.w3.org/2000/svg">
<g clip-path="url(#clip0_22721_7949)">
<path d="M38.4998 19.1156C38.4998 8.55808 29.9932 -0.000488281 19.4998 -0.000488281C9.00634 -0.000488281 0.499756 8.55808 0.499756 19.1156C0.499756 28.657 7.44778 36.5654 16.531 37.9995V24.6414H11.7068V19.1156H16.531V14.9041C16.531 10.1131 19.3676 7.46674 23.7076 7.46674C25.7863 7.46674 27.9607 7.84011 27.9607 7.84011V12.5445H25.5648C23.2046 12.5445 22.4685 14.018 22.4685 15.5297V19.1156H27.738L26.8957 24.6414H22.4685V37.9995C31.5517 36.5654 38.4998 28.657 38.4998 19.1156Z" fill="#24A3FF"/>
</g>
<defs>
<clipPath id="clip0_22721_7949">
<rect width="38" height="38" fill="white" transform="translate(0.499756 -0.000488281)"/>
</clipPath>
</defs>
</svg>
